<svg width="495" height="495" viewBox="0 0 495 495" fill="none" xmlns="http://www.w3.org/2000/svg">
<g clip-path="url(#clip0_224_3)">
<path d="M94.293 322.206C95.461 333.71 101.685 344.029 110.542 350.998C105.584 356.832 102.583 364.377 102.583 372.614V403.494C102.583 416.804 110.265 428.269 121.525 433.655C120.887 436.731 120.549 439.916 120.549 443.178C120.549 468.993 141.551 489.995 167.365 489.995C193.18 489.995 214.182 468.993 214.182 443.178C214.182 441.062 214.028 438.982 213.754 436.94H290.76C290.487 438.983 290.332 441.062 290.332 443.178C290.332 468.993 311.334 489.995 337.149 489.995C362.963 489.995 383.965 468.993 383.965 443.178C383.965 417.363 362.963 396.361 337.149 396.361C321.489 396.361 307.611 404.097 299.107 415.94H205.406C196.902 404.097 183.024 396.361 167.364 396.361C152.319 396.361 138.918 403.503 130.347 414.566C126.315 412.508 123.58 408.334 123.58 403.495V372.615C123.58 365.757 129.163 360.178 136.026 360.178C136.058 360.178 136.089 360.174 136.121 360.173C136.185 360.174 136.249 360.178 136.312 360.178H381.812C402.111 360.178 423.136 345.129 429.68 325.917L492.064 142.744C495.594 132.38 494.393 121.93 488.768 114.073C483.144 106.216 473.639 101.709 462.691 101.709H440.301L372.829 33.914C362.339 23.426 345.336 23.335 334.724 33.63L220.858 64.258L190.292 9.45199C187.468 4.38799 181.074 2.57299 176.008 5.39599L114.873 39.492C112.44 40.848 110.647 43.116 109.887 45.795C109.126 48.474 109.461 51.345 110.818 53.777L137.55 101.708H112.225C105.472 101.708 99.111 103.433 93.595 106.667L88.637 57.098C88.1 51.73 83.583 47.643 78.189 47.643H10.5C4.701 47.643 0 52.344 0 58.143C0 63.942 4.701 68.643 10.5 68.643H68.687L94.293 322.206ZM337.151 417.36C351.386 417.36 362.967 428.942 362.967 443.177C362.967 457.412 351.386 468.994 337.151 468.994C322.916 468.994 311.334 457.413 311.334 443.177C311.334 428.941 322.916 417.36 337.151 417.36ZM167.366 417.36C181.601 417.36 193.183 428.942 193.183 443.177C193.183 457.412 181.601 468.994 167.366 468.994C153.131 468.994 141.55 457.413 141.55 443.177C141.55 428.941 153.131 417.36 167.366 417.36ZM357.967 48.745L410.677 101.708H296.333L349.276 48.764C351.677 46.363 355.582 46.363 357.967 48.745ZM304.959 63.383L266.635 101.708H241.745L231.405 83.169L304.959 63.383ZM134.271 52.718L177.066 28.851L217.7 101.708H161.594L134.271 52.718ZM472.188 135.972L409.804 319.145C406.169 329.816 393.09 339.176 381.815 339.176H136.315C125.912 339.176 116.235 330.433 115.185 320.086L111.475 283.492H337.223C343.022 283.492 347.723 278.791 347.723 272.992C347.723 267.193 343.022 262.492 337.223 262.492H109.347L96.921 139.92C96.921 139.917 96.921 139.916 96.921 139.914L96.919 139.891C96.446 135.222 97.798 130.867 100.728 127.625C103.593 124.454 107.676 122.708 112.225 122.708H435.843C435.878 122.709 435.911 122.713 435.946 122.713C435.98 122.713 436.014 122.709 436.048 122.708H462.695C466.843 122.708 470.041 123.982 471.696 126.295C473.352 128.607 473.526 132.044 472.188 135.972Z" fill="url(#paint0_linear_224_3)"/>
</g>
<defs>
<linearGradient id="paint0_linear_224_3" x1="98.5" y1="132.5" x2="465" y2="281.5" gradientUnits="userSpaceOnUse">
<stop stop-color="#2C1407"/>
<stop offset="1" stop-color="#1F0E05" stop-opacity="0.5"/>
</linearGradient>
<clipPath id="clip0_224_3">
<rect width="494.059" height="494.059" fill="white"/>
</clipPath>
</defs>
</svg>
