<svg width="290" height="290" viewBox="0 0 290 290" fill="none" xmlns="http://www.w3.org/2000/svg">
<path d="M263.681 89.7913C262.57 88.1851 261.085 86.8722 259.355 85.9652C257.626 85.0582 255.702 84.584 253.748 84.5834H88.6055L74.6613 51.1126C72.833 46.7048 69.737 42.9392 65.7658 40.2933C61.7947 37.6473 57.1273 36.2401 52.3555 36.2501H24.165V60.4167H52.3555L109.679 197.985C110.597 200.187 112.146 202.067 114.131 203.389C116.115 204.711 118.447 205.417 120.832 205.417H217.498C222.537 205.417 227.044 202.287 228.82 197.587L265.07 100.92C265.756 99.0909 265.987 97.1229 265.745 95.1847C265.503 93.2465 264.795 91.3958 263.681 89.7913V89.7913ZM209.125 181.25H128.891L98.683 108.75H236.312L209.125 181.25Z" fill="#DD6822"/>
<path d="M126.875 253.75C136.885 253.75 145 245.635 145 235.625C145 225.615 136.885 217.5 126.875 217.5C116.865 217.5 108.75 225.615 108.75 235.625C108.75 245.635 116.865 253.75 126.875 253.75Z" fill="#DD6822"/>
<path d="M211.46 253.75C221.47 253.75 229.585 245.635 229.585 235.625C229.585 225.615 221.47 217.5 211.46 217.5C201.45 217.5 193.335 225.615 193.335 235.625C193.335 245.635 201.45 253.75 211.46 253.75Z" fill="#DD6822"/>
<rect x="86" y="77.7878" width="112.08" height="76.9615" transform="rotate(-22.5 86 77.7878)" fill="#1F0E05"/>
<rect x="148.055" y="24" width="112.08" height="76.9615" transform="rotate(20.5814 148.055 24)" fill="#1F0E05"/>
</svg>
