<svg width="122" height="18" viewBox="0 0 122 18" fill="none" xmlns="http://www.w3.org/2000/svg">
<path d="M9 0L11.7826 5.17011L17.5595 6.21885L13.5023 10.4629L14.2901 16.2812L9 13.734L3.70993 16.2812L4.4977 10.4629L0.440492 6.21885L6.21742 5.17011L9 0Z" fill="#DF7539"/>
<path d="M35 0L37.7826 5.17011L43.5595 6.21885L39.5023 10.4629L40.2901 16.2812L35 13.734L29.7099 16.2812L30.4977 10.4629L26.4405 6.21885L32.2174 5.17011L35 0Z" fill="#E69465"/>
<path d="M61 0L63.7826 5.17011L69.5595 6.21885L65.5023 10.4629L66.2901 16.2812L61 13.734L55.7099 16.2812L56.4977 10.4629L52.4405 6.21885L58.2174 5.17011L61 0Z" fill="#EDB291"/>
<path d="M87 0L89.7826 5.17011L95.5595 6.21885L91.5023 10.4629L92.2901 16.2812L87 13.734L81.7099 16.2812L82.4977 10.4629L78.4405 6.21885L84.2174 5.17011L87 0Z" fill="#F4D1BD"/>
<path d="M113 0L115.783 5.17011L121.56 6.21885L117.502 10.4629L118.29 16.2812L113 13.734L107.71 16.2812L108.498 10.4629L104.44 6.21885L110.217 5.17011L113 0Z" fill="#FBF0E9"/>
</svg>
