<svg width="52" height="52" viewBox="0 0 52 52" fill="none" xmlns="http://www.w3.org/2000/svg">
<circle cx="26" cy="26" r="26" fill="#1F0E05" fill-opacity="0.67"/>
<g clip-path="url(#clip0_248_21)">
<path d="M26.4997 24.9895C29.5296 24.9895 31.9946 22.5246 31.9946 19.4947C31.9946 16.4649 29.5296 14 26.4997 14C23.4699 14 21.0049 16.4649 21.0049 19.4947C21.0049 22.5246 23.4699 24.9895 26.4997 24.9895ZM26.4997 16.627C28.0811 16.627 29.3676 17.9134 29.3676 19.4947C29.3676 21.0761 28.0811 22.3625 26.4997 22.3625C24.9184 22.3625 23.6319 21.0761 23.6319 19.4947C23.6319 17.9134 24.9184 16.627 26.4997 16.627Z" fill="#FEFCFB"/>
<path d="M26.4997 27.6165C20.9471 27.6165 16.4297 32.1339 16.4297 37.6865C16.4297 38.4119 17.0178 39 17.7432 39H35.2563C35.9817 39 36.5698 38.4119 36.5698 37.6865C36.5698 32.1339 32.0524 27.6165 26.4997 27.6165ZM19.1727 36.373C19.7949 32.8932 22.8437 30.2434 26.4997 30.2434C30.1558 30.2434 33.2046 32.8932 33.8268 36.373H19.1727Z" fill="#FEFCFB"/>
</g>
<defs>
<clipPath id="clip0_248_21">
<rect width="25" height="25" fill="white" transform="translate(14 14)"/>
</clipPath>
</defs>
</svg>
